<svg width="32" height="32" viewBox="0 0 32 32" fill="none" xmlns="http://www.w3.org/2000/svg">
<mask id="mask0_2976_30264" style="mask-type:luminance" maskUnits="userSpaceOnUse" x="0" y="0" width="32" height="32">
<rect width="32" height="32" rx="6" fill="white"/>
</mask>
<g mask="url(#mask0_2976_30264)">
<path fill-rule="evenodd" clip-rule="evenodd" d="M20.6493 17.1731H11.3425C10.7017 17.1731 10.1818 16.6562 10.1818 16.0187C10.1818 15.3812 10.7017 14.8644 11.3425 14.8644H20.6493C21.29 14.8644 21.8097 15.3812 21.8097 16.0187C21.8097 16.6562 21.29 17.1731 20.6493 17.1731M17.4211 21.1603H14.5706C13.9296 21.1603 13.4099 20.6435 13.4099 20.006C13.4099 19.3685 13.9296 18.8516 14.5706 18.8516H17.4211C18.0625 18.8516 18.5821 19.3685 18.5821 20.006C18.5821 20.6435 18.0625 21.1603 17.4211 21.1603M13.4276 10.8772H18.5642C19.2052 10.8772 19.7249 11.394 19.7249 12.0315C19.7249 12.669 19.2052 13.1859 18.5642 13.1859H13.4276C12.7865 13.1859 12.2669 12.669 12.2669 12.0315C12.2669 11.394 12.7865 10.8772 13.4276 10.8772M26.3528 15.3293L21.7627 7.42228C21.5212 7.00625 21.0746 6.75 20.5914 6.75H11.4112C10.928 6.75 10.4814 7.00625 10.2402 7.42228L5.64986 15.3293C5.40838 15.7454 5.40838 16.2582 5.64986 16.6742L10.2402 24.5812C10.4814 24.9973 10.928 25.2535 11.4112 25.2535H20.5914C21.0746 25.2535 21.5212 24.9973 21.7627 24.5812L26.3528 16.6742C26.5945 16.2582 26.5945 15.7454 26.3528 15.3293" fill="#F8C537"/>
</g>
</svg>
